<?xml version="1.0" encoding="UTF-8" standalone="no"?>
<!-- Generator: Adobe Illustrator 19.2.1, SVG Export Plug-In . SVG Version: 6.00 Build 0)  -->

<svg
   xmlns:dc="http://purl.org/dc/elements/1.1/"
   xmlns:cc="http://creativecommons.org/ns#"
   xmlns:rdf="http://www.w3.org/1999/02/22-rdf-syntax-ns#"
   xmlns:svg="http://www.w3.org/2000/svg"
   xmlns="http://www.w3.org/2000/svg"
   xmlns:sodipodi="http://sodipodi.sourceforge.net/DTD/sodipodi-0.dtd"
   xmlns:inkscape="http://www.inkscape.org/namespaces/inkscape"
   version="1.1"
   id="Layer_1"
   x="0px"
   y="0px"
   width="35px"
   height="35px"
   viewBox="0 0 35 35"
   style="enable-background:new 0 0 35 35;"
   xml:space="preserve"
   sodipodi:docname="heart.svg"
   inkscape:version="0.92.4 (5da689c313, 2019-01-14)"><metadata
   id="metadata831"><rdf:RDF><cc:Work
       rdf:about=""><dc:format>image/svg+xml</dc:format><dc:type
         rdf:resource="http://purl.org/dc/dcmitype/StillImage" /><dc:title></dc:title></cc:Work></rdf:RDF></metadata><defs
   id="defs829" /><sodipodi:namedview
   pagecolor="#ffffff"
   bordercolor="#666666"
   borderopacity="1"
   objecttolerance="10"
   gridtolerance="10"
   guidetolerance="10"
   inkscape:pageopacity="0"
   inkscape:pageshadow="2"
   inkscape:window-width="1920"
   inkscape:window-height="1001"
   id="namedview827"
   showgrid="false"
   inkscape:zoom="55.266667"
   inkscape:cx="6.4234017"
   inkscape:cy="7.5"
   inkscape:window-x="-9"
   inkscape:window-y="-9"
   inkscape:window-maximized="1"
   inkscape:current-layer="Layer_1" />
<path
   d="M13.91,6.75c-1.17,2.25-4.3,5.31-6.07,6.94c-0.1903,0.1718-0.4797,0.1718-0.67,0C5.39,12.06,2.26,9,1.09,6.75  C-1.48,1.8,5-1.5,7.5,3.45C10-1.5,16.48,1.8,13.91,6.75z"
   id="path824" />
<path
   style="fill:#ffffff;fill-opacity:1;stroke:none;stroke-width:0.01812258;stroke-miterlimit:4;stroke-dasharray:none;stroke-opacity:1;paint-order:markers fill stroke"
   d="M 7.3768431,13.795397 C 7.2382042,13.749909 7.1260692,13.651364 6.1375151,12.706269 3.9003925,10.567496 2.2033099,8.6113704 1.3428407,7.1797346 0.62236491,5.9810177 0.36497339,4.8294764 0.58276178,3.7792252 0.84287369,2.5248753 1.7592496,1.531007 3.0002416,1.1573136 3.3673685,1.0467626 3.5156691,1.0276745 4.0024125,1.0283218 c 0.4014608,5.34e-4 0.4514199,0.00425 0.6614903,0.049161 1.1214054,0.239764 2.0615024,0.9912105 2.7175612,2.1722245 L 7.5000749,3.4632271 7.5774588,3.322084 C 8.1088703,2.3528228 8.8033764,1.6677423 9.6177326,1.3094999 10.050618,1.1190699 10.413157,1.0378977 10.893561,1.0238431 c 0.404284,-0.011827 0.626263,0.00987 0.96301,0.094129 1.003097,0.2509894 1.833098,0.9226383 2.281028,1.84584 0.26105,0.5380343 0.363434,1.0334293 0.345502,1.6717453 -0.03612,1.2857434 -0.608656,2.4702219 -2.073765,4.2902571 -0.610374,0.7582374 -1.28187,1.5046625 -2.253215,2.5046405 -0.8611792,0.886564 -2.2928637,2.253778 -2.4371177,2.327371 -0.084684,0.0432 -0.2647394,0.06297 -0.3421602,0.03757 z"
   id="path4536"
   inkscape:connector-curvature="0" /></svg>